/* XPM */
static char * alien_1_xpm[] = {
"8 8 2 1",
" 	g None",
".	g #FFFFFF",
"  ...   ",
" ... ...",
".....   ",
". .. ...",
". ...   ",
".... ...",
" ....   ",
"  ......"};
