/* XPM */
static char * alien_2_xpm[] = {
"8 8 2 1",
" 	c None",
".	c #FFFFFF",
" .   .  ",
"     .  ",
".   .   ",
"  ..... ",
"  ...   ",
"..   .  ",
"     .. ",
"     .  "};
