/* XPM */
static char * alien_4_xpm[] = {
"8 8 2 1",
" 	c None",
".	c #FFFFFF",
"..      ",
"  ..    ",
"..  .  .",
"  .  .. ",
"  .  .. ",
"..  .  .",
"  ..    ",
"..      "};
