/* XPM */
static char * explode_3_xpm[] = {
"8 8 2 1",
" 	g None",
".	g #FFFFFF",
"        ",
"        ",
"        ",
" ...... ",
"        ",
"        ",
"        ",
"        "};
