/* XPM */
static char * explode_2_xpm[] = {
"8 8 2 1",
" 	g None",
".	g #FFFFFF",
"        ",
"        ",
"  ....  ",
"..    ..",
"  ....  ",
"        ",
"        ",
"        "};
