/* XPM */
static char * meteor_xpm[] = {
"8 8 2 1",
" 	c None",
".	c #FFFFFF",
"    ... ",
"  ......",
" .... ..",
"... ....",
"...... .",
". . ... ",
" ....   ",
"  ..    "};
