/* XPM */
static char * numbers_xpm[] = {
"60 5 2 1",
" 	c None",
".	c #FFFFFF",
" ...    .   ....  ....    ..  .....  ...  .....  ...   ...  ",
".   .  ..       .     .  . .  .     .         . .   . .   . ",
".   .   .    ...   ...  .  .  ....  ....     .   ...   .... ",
".   .   .   .         . .....     . .   .   .   .   .     . ",
" ...    .   ..... ....     .  ....   ...   .     ...   ...  "};
