/* XPM */
static char * ship_xpm[] = {
"8 8 2 1",
" 	c None",
".	c #FFFFFF",
"        ",
"        ",
"...     ",
" .......",
" ....   ",
"..   ...",
"        ",
"        "};
