/* XPM */
static char * shoot_xpm[] = {
"8 8 2 1",
" 	c None",
".	c #FFFFFF",
"        ",
"        ",
"   ..   ",
"  .  .  ",
"  .  .  ",
"   ..   ",
"        ",
"        "};
