/* XPM */
static char *are_you_blind[] = {
/* columns rows colors chars-per-pixel */
"256 64 2 1 ",
"  c white",
". c None",
/* pixels */
"................................................................................................................................................................................................................................................................",
"................................................................................................................................................................................................................................................................",
"................................................................................................................................................................................................................................................................",
"................................................................................................................................................................................................................................................................",
"................................................................................................................................................................................................................................................................",
"................................................................................................................................................................................................................................................................",
"................................................................................................................................................................................................................................................................",
"................................................................................................................................................................................................................................................................",
"................................................................................................................................................................................................................................................................",
"................................................................................................................................................................................................................................................................",
"................................................................................................................................................................................................................................................................",
"................................................................................................................................................................................................................................................................",
"................................................................................................................................................................................................................................................................",
"................................................................................................................................................................................................................................................................",
"................................................................................................................................................................................................................................................................",
"................................................................................................................................................................................................................................................................",
"................................................................................................................................................................................................................................................................",
"................................................................................................................................................................................................................................................................",
"................................................................................................................................................................................................................................................................",
"................................................................................................................................................................................................................................................................",
"................................................................................................................................................................................................................................................................",
"................................................................................................................................................................................................................................................................",
"................................................................................................................................................................................................................................................................",
"................................................................................................................................................................................................................................................................",
"................................................................................................................................................................................................................................................................",
"................................................................................................................................................................................................................................................................",
"..........................................................      ....        ......        ..........  ......  ....      ....  ......  ..........        ....  ..........      ..  ......  ..        ............................................................",
"..........................................................      ....        ......        ..........  ......  ....      ....  ......  ..........        ....  ..........      ..  ......  ..        ............................................................",
"........................................................  ......  ..  ......  ..  ..................  ......  ..  ......  ..  ......  ..........  ......  ..  ............  ....    ....  ..  ......  ..........................................................",
"........................................................  ......  ..  ......  ..  ..................  ......  ..  ......  ..  ......  ..........  ......  ..  ............  ....    ....  ..  ......  ..........................................................",
"........................................................          ..        ....          ............  ..  ....  ......  ..  ......  ..........        ....  ............  ....  ..  ..  ..  ......  ..........................................................",
"........................................................          ..        ....          ............  ..  ....  ......  ..  ......  ..........        ....  ............  ....  ..  ..  ..  ......  ..........................................................",
"........................................................  ......  ..  ....  ....  ......................  ......  ......  ..  ......  ..........  ......  ..  ............  ....  ....    ..  ......  ..........................................................",
"........................................................  ......  ..  ....  ....  ......................  ......  ......  ..  ......  ..........  ......  ..  ............  ....  ....    ..  ......  ..........................................................",
"........................................................  ......  ..  ......  ....        ..............  ........      ......      ............        ....          ..      ..  ......  ..        ............................................................",
"........................................................  ......  ..  ......  ....        ..............  ........      ......      ............        ....          ..      ..  ......  ..        ............................................................",
"................................................................................................................................................................................................................................................................",
"................................................................................................................................................................................................................................................................",
"................................................................................................................................................................................................................................................................",
"................................................................................................................................................................................................................................................................",
"................................................................................................................................................................................................................................................................",
"................................................................................................................................................................................................................................................................",
"................................................................................................................................................................................................................................................................",
"................................................................................................................................................................................................................................................................",
"................................................................................................................................................................................................................................................................",
"................................................................................................................................................................................................................................................................",
"................................................................................................................................................................................................................................................................",
"................................................................................................................................................................................................................................................................",
"................................................................................................................................................................................................................................................................",
"................................................................................................................................................................................................................................................................",
"................................................................................................................................................................................................................................................................",
"................................................................................................................................................................................................................................................................",
"................................................................................................................................................................................................................................................................",
"................................................................................................................................................................................................................................................................",
"................................................................................................................................................................................................................................................................",
"................................................................................................................................................................................................................................................................",
"................................................................................................................................................................................................................................................................",
"................................................................................................................................................................................................................................................................",
"................................................................................................................................................................................................................................................................",
"................................................................................................................................................................................................................................................................",
"................................................................................................................................................................................................................................................................",
"................................................................................................................................................................................................................................................................",
"................................................................................................................................................................................................................................................................",
"................................................................................................................................................................................................................................................................"
};
