/* XPM */
static char * are_you_drunk_xpm[] = {
"256 64 2 1",
" 	c #000000",
".	c #FFFFFF",
"                                                                                                                                                                                                                                                                ",
"                                                                                                                                                                                                                                                                ",
"                                                                                                                                                                                                                                                                ",
"                                                                                                                                                                                                                                                                ",
"                                                                                                                                                                                                                                                                ",
"                                                                                                                                                                                                                                                                ",
"                                                                                                                                                                                                                                                                ",
"                                                                                                                                                                                                                                                                ",
"                                                                                                                                                                                                                                                                ",
"                                                                                                                                                                                                                                                                ",
"                                                                                                                                                                                                                                                                ",
"                                                                                                                                                                                                                                                                ",
"                                                                                                                                                                                                                                                                ",
"                                                                                                                                                                                                                                                                ",
"                                                                                                                                                                                                                                                                ",
"                                                                                                                                                                                                                                                                ",
"                                                                                                                                                                                                                                                                ",
"                                                                                                                                                                                                                                                                ",
"                                                                                                                                                                                                                                                                ",
"                                                                                                                                                                                                                                                                ",
"                                                                                                                                                                                                                                                                ",
"                                                                                                                                                                                                                                                                ",
"                                                                                                                                                                                                                                                                ",
"                                                                                                                                                                                                                                                                ",
"                                                                                                                                                                                                                                                                ",
"                                                                                                                                                                                                                                                                ",
"                                                        ......    ........      ........          ..      ..    ......    ..      ..          ........    ........    ..      ..  ..      ..  ..      ..                                                        ",
"                                                        ......    ........      ........          ..      ..    ......    ..      ..          ........    ........    ..      ..  ..      ..  ..      ..                                                        ",
"                                                      ..      ..  ..      ..  ..                  ..      ..  ..      ..  ..      ..          ..      ..  ..      ..  ..      ..  ....    ..  ..    ..                                                          ",
"                                                      ..      ..  ..      ..  ..                  ..      ..  ..      ..  ..      ..          ..      ..  ..      ..  ..      ..  ....    ..  ..    ..                                                          ",
"                                                      ..........  ........    ..........            ..  ..    ..      ..  ..      ..          ..      ..  ........    ..      ..  ..  ..  ..  ......                                                            ",
"                                                      ..........  ........    ..........            ..  ..    ..      ..  ..      ..          ..      ..  ........    ..      ..  ..  ..  ..  ......                                                            ",
"                                                      ..      ..  ..    ..    ..                      ..      ..      ..  ..      ..          ..      ..  ..    ..    ..      ..  ..    ....  ..    ..                                                          ",
"                                                      ..      ..  ..    ..    ..                      ..      ..      ..  ..      ..          ..      ..  ..    ..    ..      ..  ..    ....  ..    ..                                                          ",
"                                                      ..      ..  ..      ..    ........              ..        ......      ......            ........    ..      ..    ......    ..      ..  ..      ..                                                        ",
"                                                      ..      ..  ..      ..    ........              ..        ......      ......            ........    ..      ..    ......    ..      ..  ..      ..                                                        ",
"                                                                                                                                                                                                                                                                ",
"                                                                                                                                                                                                                                                                ",
"                                                                                                                                                                                                                                                                ",
"                                                                                                                                                                                                                                                                ",
"                                                                                                                                                                                                                                                                ",
"                                                                                                                                                                                                                                                                ",
"                                                                                                                                                                                                                                                                ",
"                                                                                                                                                                                                                                                                ",
"                                                                                                                                                                                                                                                                ",
"                                                                                                                                                                                                                                                                ",
"                                                                                                                                                                                                                                                                ",
"                                                                                                                                                                                                                                                                ",
"                                                                                                                                                                                                                                                                ",
"                                                                                                                                                                                                                                                                ",
"                                                                                                                                                                                                                                                                ",
"                                                                                                                                                                                                                                                                ",
"                                                                                                                                                                                                                                                                ",
"                                                                                                                                                                                                                                                                ",
"                                                                                                                                                                                                                                                                ",
"                                                                                                                                                                                                                                                                ",
"                                                                                                                                                                                                                                                                ",
"                                                                                                                                                                                                                                                                ",
"                                                                                                                                                                                                                                                                ",
"                                                                                                                                                                                                                                                                ",
"                                                                                                                                                                                                                                                                ",
"                                                                                                                                                                                                                                                                ",
"                                                                                                                                                                                                                                                                ",
"                                                                                                                                                                                                                                                                "};
