/* XPM */
static char *killing_machine[] = {
/* columns rows colors chars-per-pixel */
"256 64 2 1 ",
"  c white",
". c None",
/* pixels */
"................................................................................................................................................................................................................................................................",
"................................................................................................................................................................................................................................................................",
"................................................................................................................................................................................................................................................................",
"................................................................................................................................................................................................................................................................",
"................................................................................................................................................................................................................................................................",
"................................................................................................................................................................................................................................................................",
"................................................................................................................................................................................................................................................................",
"................................................................................................................................................................................................................................................................",
"................................................................................................................................................................................................................................................................",
"................................................................................................................................................................................................................................................................",
"................................................................................................................................................................................................................................................................",
"................................................................................................................................................................................................................................................................",
"................................................................................................................................................................................................................................................................",
"................................................................................................................................................................................................................................................................",
"................................................................................................................................................................................................................................................................",
"................................................................................................................................................................................................................................................................",
"................................................................................................................................................................................................................................................................",
"................................................................................................................................................................................................................................................................",
"................................................................................................................................................................................................................................................................",
"................................................................................................................................................................................................................................................................",
"................................................................................................................................................................................................................................................................",
"................................................................................................................................................................................................................................................................",
"................................................................................................................................................................................................................................................................",
"................................................................................................................................................................................................................................................................",
"................................................................................................................................................................................................................................................................",
"................................................................................................................................................................................................................................................................",
"..............................................  ......  ..      ..  ..........  ..........      ..  ......  ....        ..........  ......  ....      ......      ....  ......  ..      ..  ......  ....        ................................................",
"..............................................  ......  ..      ..  ..........  ..........      ..  ......  ....        ..........  ......  ....      ......      ....  ......  ..      ..  ......  ....        ................................................",
"..............................................  ....  ......  ....  ..........  ............  ....    ....  ..  ..................    ..    ..  ......  ..  ......  ..  ......  ....  ....    ....  ..  ........................................................",
"..............................................  ....  ......  ....  ..........  ............  ....    ....  ..  ..................    ..    ..  ......  ..  ......  ..  ......  ....  ....    ....  ..  ........................................................",
"..............................................      ........  ....  ..........  ............  ....  ..  ..  ..  ..      ..........  ..  ..  ..          ..  ..........          ....  ....  ..  ..  ..          ................................................",
"..............................................      ........  ....  ..........  ............  ....  ..  ..  ..  ..      ..........  ..  ..  ..          ..  ..........          ....  ....  ..  ..  ..          ................................................",
"..............................................  ....  ......  ....  ..........  ............  ....  ....    ..  ......  ..........  ......  ..  ......  ..  ......  ..  ......  ....  ....  ....    ..  ........................................................",
"..............................................  ....  ......  ....  ..........  ............  ....  ....    ..  ......  ..........  ......  ..  ......  ..  ......  ..  ......  ....  ....  ....    ..  ........................................................",
"..............................................  ......  ..      ..          ..          ..      ..  ......  ....        ..........  ......  ..  ......  ....      ....  ......  ..      ..  ......  ....        ................................................",
"..............................................  ......  ..      ..          ..          ..      ..  ......  ....        ..........  ......  ..  ......  ....      ....  ......  ..      ..  ......  ....        ................................................",
"................................................................................................................................................................................................................................................................",
"................................................................................................................................................................................................................................................................",
"................................................................................................................................................................................................................................................................",
"................................................................................................................................................................................................................................................................",
"................................................................................................................................................................................................................................................................",
"................................................................................................................................................................................................................................................................",
"................................................................................................................................................................................................................................................................",
"................................................................................................................................................................................................................................................................",
"................................................................................................................................................................................................................................................................",
"................................................................................................................................................................................................................................................................",
"................................................................................................................................................................................................................................................................",
"................................................................................................................................................................................................................................................................",
"................................................................................................................................................................................................................................................................",
"................................................................................................................................................................................................................................................................",
"................................................................................................................................................................................................................................................................",
"................................................................................................................................................................................................................................................................",
"................................................................................................................................................................................................................................................................",
"................................................................................................................................................................................................................................................................",
"................................................................................................................................................................................................................................................................",
"................................................................................................................................................................................................................................................................",
"................................................................................................................................................................................................................................................................",
"................................................................................................................................................................................................................................................................",
"................................................................................................................................................................................................................................................................",
"................................................................................................................................................................................................................................................................",
"................................................................................................................................................................................................................................................................",
"................................................................................................................................................................................................................................................................",
"................................................................................................................................................................................................................................................................",
"................................................................................................................................................................................................................................................................"
};
