/* XPM */
static char *lucky_i_m_not_an_alien[] = {
/* columns rows colors chars-per-pixel */
"256 64 2 1 ",
"  c white",
". c None",
/* pixels */
"................................................................................................................................................................................................................................................................",
"................................................................................................................................................................................................................................................................",
"................................................................................................................................................................................................................................................................",
"................................................................................................................................................................................................................................................................",
"................................................................................................................................................................................................................................................................",
"................................................................................................................................................................................................................................................................",
"................................................................................................................................................................................................................................................................",
"................................................................................................................................................................................................................................................................",
"................................................................................................................................................................................................................................................................",
"................................................................................................................................................................................................................................................................",
"................................................................................................................................................................................................................................................................",
"................................................................................................................................................................................................................................................................",
"................................................................................................................................................................................................................................................................",
"................................................................................................................................................................................................................................................................",
"................................................................................................................................................................................................................................................................",
"................................................................................................................................................................................................................................................................",
"................................................................................................................................................................................................................................................................",
"................................................................................................................................................................................................................................................................",
"................................................................................................................................................................................................................................................................",
"................................................................................................................................................................................................................................................................",
"................................................................................................................................................................................................................................................................",
"................................................................................................................................................................................................................................................................",
"................................................................................................................................................................................................................................................................",
"................................................................................................................................................................................................................................................................",
"................................................................................................................................................................................................................................................................",
"................................................................................................................................................................................................................................................................",
"..........  ..........  ......  ....      ....  ......  ..  ......  ..........      ..........  ......  ..........  ......  ....      ....          ............      ....  ......  ............      ....  ..........      ....        ..  ......  ............",
"..........  ..........  ......  ....      ....  ......  ..  ......  ..........      ..........  ......  ..........  ......  ....      ....          ............      ....  ......  ............      ....  ..........      ....        ..  ......  ............",
"..........  ..........  ......  ..  ......  ..  ....  ....  ......  ............  ............    ..    ..........    ....  ..  ......  ......  ..............  ......  ..    ....  ..........  ......  ..  ............  ....  ..........    ....  ............",
"..........  ..........  ......  ..  ......  ..  ....  ....  ......  ............  ............    ..    ..........    ....  ..  ......  ......  ..............  ......  ..    ....  ..........  ......  ..  ............  ....  ..........    ....  ............",
"..........  ..........  ......  ..  ..........      ........  ..  ..............  ............  ..  ..  ..........  ..  ..  ..  ......  ......  ..............          ..  ..  ..  ..........          ..  ............  ....          ..  ..  ..  ............",
"..........  ..........  ......  ..  ..........      ........  ..  ..............  ............  ..  ..  ..........  ..  ..  ..  ......  ......  ..............          ..  ..  ..  ..........          ..  ............  ....          ..  ..  ..  ............",
"..........  ..........  ......  ..  ......  ..  ....  ........  ................  ............  ......  ..........  ....    ..  ......  ......  ..............  ......  ..  ....    ..........  ......  ..  ............  ....  ..........  ....    ............",
"..........  ..........  ......  ..  ......  ..  ....  ........  ................  ............  ......  ..........  ....    ..  ......  ......  ..............  ......  ..  ....    ..........  ......  ..  ............  ....  ..........  ....    ............",
"..........          ....      ......      ....  ......  ......  ..............      ..........  ......  ..........  ......  ....      ........  ..............  ......  ..  ......  ..........  ......  ..          ..      ....        ..  ......  ............",
"..........          ....      ......      ....  ......  ......  ..............      ..........  ......  ..........  ......  ....      ........  ..............  ......  ..  ......  ..........  ......  ..          ..      ....        ..  ......  ............",
"................................................................................................................................................................................................................................................................",
"................................................................................................................................................................................................................................................................",
"................................................................................................................................................................................................................................................................",
"................................................................................................................................................................................................................................................................",
"................................................................................................................................................................................................................................................................",
"................................................................................................................................................................................................................................................................",
"................................................................................................................................................................................................................................................................",
"................................................................................................................................................................................................................................................................",
"................................................................................................................................................................................................................................................................",
"................................................................................................................................................................................................................................................................",
"................................................................................................................................................................................................................................................................",
"................................................................................................................................................................................................................................................................",
"................................................................................................................................................................................................................................................................",
"................................................................................................................................................................................................................................................................",
"................................................................................................................................................................................................................................................................",
"................................................................................................................................................................................................................................................................",
"................................................................................................................................................................................................................................................................",
"................................................................................................................................................................................................................................................................",
"................................................................................................................................................................................................................................................................",
"................................................................................................................................................................................................................................................................",
"................................................................................................................................................................................................................................................................",
"................................................................................................................................................................................................................................................................",
"................................................................................................................................................................................................................................................................",
"................................................................................................................................................................................................................................................................",
"................................................................................................................................................................................................................................................................",
"................................................................................................................................................................................................................................................................",
"................................................................................................................................................................................................................................................................",
"................................................................................................................................................................................................................................................................"
};
