/* XPM */
static char * lucky_i_m_not_an_alien_xpm[] = {
"256 64 2 1",
" 	c #000000",
".	c #FFFFFF",
"                                                                                                                                                                                                                                                                ",
"                                                                                                                                                                                                                                                                ",
"                                                                                                                                                                                                                                                                ",
"                                                                                                                                                                                                                                                                ",
"                                                                                                                                                                                                                                                                ",
"                                                                                                                                                                                                                                                                ",
"                                                                                                                                                                                                                                                                ",
"                                                                                                                                                                                                                                                                ",
"                                                                                                                                                                                                                                                                ",
"                                                                                                                                                                                                                                                                ",
"                                                                                                                                                                                                                                                                ",
"                                                                                                                                                                                                                                                                ",
"                                                                                                                                                                                                                                                                ",
"                                                                                                                                                                                                                                                                ",
"                                                                                                                                                                                                                                                                ",
"                                                                                                                                                                                                                                                                ",
"                                                                                                                                                                                                                                                                ",
"                                                                                                                                                                                                                                                                ",
"                                                                                                                                                                                                                                                                ",
"                                                                                                                                                                                                                                                                ",
"                                                                                                                                                                                                                                                                ",
"                                                                                                                                                                                                                                                                ",
"                                                                                                                                                                                                                                                                ",
"                                                                                                                                                                                                                                                                ",
"                                                                                                                                                                                                                                                                ",
"                                                                                                                                                                                                                                                                ",
"          ..          ..      ..    ......    ..      ..  ..      ..          ......          ..      ..          ..      ..    ......    ..........            ......    ..      ..            ......    ..          ......    ........  ..      ..            ",
"          ..          ..      ..    ......    ..      ..  ..      ..          ......          ..      ..          ..      ..    ......    ..........            ......    ..      ..            ......    ..          ......    ........  ..      ..            ",
"          ..          ..      ..  ..      ..  ..    ..    ..      ..            ..            ....  ....          ....    ..  ..      ..      ..              ..      ..  ....    ..          ..      ..  ..            ..    ..          ....    ..            ",
"          ..          ..      ..  ..      ..  ..    ..    ..      ..            ..            ....  ....          ....    ..  ..      ..      ..              ..      ..  ....    ..          ..      ..  ..            ..    ..          ....    ..            ",
"          ..          ..      ..  ..          ......        ..  ..              ..            ..  ..  ..          ..  ..  ..  ..      ..      ..              ..........  ..  ..  ..          ..........  ..            ..    ..........  ..  ..  ..            ",
"          ..          ..      ..  ..          ......        ..  ..              ..            ..  ..  ..          ..  ..  ..  ..      ..      ..              ..........  ..  ..  ..          ..........  ..            ..    ..........  ..  ..  ..            ",
"          ..          ..      ..  ..      ..  ..    ..        ..                ..            ..      ..          ..    ....  ..      ..      ..              ..      ..  ..    ....          ..      ..  ..            ..    ..          ..    ....            ",
"          ..          ..      ..  ..      ..  ..    ..        ..                ..            ..      ..          ..    ....  ..      ..      ..              ..      ..  ..    ....          ..      ..  ..            ..    ..          ..    ....            ",
"          ..........    ......      ......    ..      ..      ..              ......          ..      ..          ..      ..    ......        ..              ..      ..  ..      ..          ..      ..  ..........  ......    ........  ..      ..            ",
"          ..........    ......      ......    ..      ..      ..              ......          ..      ..          ..      ..    ......        ..              ..      ..  ..      ..          ..      ..  ..........  ......    ........  ..      ..            ",
"                                                                                                                                                                                                                                                                ",
"                                                                                                                                                                                                                                                                ",
"                                                                                                                                                                                                                                                                ",
"                                                                                                                                                                                                                                                                ",
"                                                                                                                                                                                                                                                                ",
"                                                                                                                                                                                                                                                                ",
"                                                                                                                                                                                                                                                                ",
"                                                                                                                                                                                                                                                                ",
"                                                                                                                                                                                                                                                                ",
"                                                                                                                                                                                                                                                                ",
"                                                                                                                                                                                                                                                                ",
"                                                                                                                                                                                                                                                                ",
"                                                                                                                                                                                                                                                                ",
"                                                                                                                                                                                                                                                                ",
"                                                                                                                                                                                                                                                                ",
"                                                                                                                                                                                                                                                                ",
"                                                                                                                                                                                                                                                                ",
"                                                                                                                                                                                                                                                                ",
"                                                                                                                                                                                                                                                                ",
"                                                                                                                                                                                                                                                                ",
"                                                                                                                                                                                                                                                                ",
"                                                                                                                                                                                                                                                                ",
"                                                                                                                                                                                                                                                                ",
"                                                                                                                                                                                                                                                                ",
"                                                                                                                                                                                                                                                                ",
"                                                                                                                                                                                                                                                                ",
"                                                                                                                                                                                                                                                                ",
"                                                                                                                                                                                                                                                                "};
