/* XPM */
static char *not_that_bad[] = {
/* columns rows colors chars-per-pixel */
"256 64 2 1 ",
"  c white",
". c None",
/* pixels */
"................................................................................................................................................................................................................................................................",
"................................................................................................................................................................................................................................................................",
"................................................................................................................................................................................................................................................................",
"................................................................................................................................................................................................................................................................",
"................................................................................................................................................................................................................................................................",
"................................................................................................................................................................................................................................................................",
"................................................................................................................................................................................................................................................................",
"................................................................................................................................................................................................................................................................",
"................................................................................................................................................................................................................................................................",
"................................................................................................................................................................................................................................................................",
"................................................................................................................................................................................................................................................................",
"................................................................................................................................................................................................................................................................",
"................................................................................................................................................................................................................................................................",
"................................................................................................................................................................................................................................................................",
"................................................................................................................................................................................................................................................................",
"................................................................................................................................................................................................................................................................",
"................................................................................................................................................................................................................................................................",
"................................................................................................................................................................................................................................................................",
"................................................................................................................................................................................................................................................................",
"................................................................................................................................................................................................................................................................",
"................................................................................................................................................................................................................................................................",
"................................................................................................................................................................................................................................................................",
"................................................................................................................................................................................................................................................................",
"................................................................................................................................................................................................................................................................",
"................................................................................................................................................................................................................................................................",
"................................................................................................................................................................................................................................................................",
"............................................................  ......  ....      ....          ..........          ..  ......  ....      ....          ..........        ......      ....        ................................................................",
"............................................................  ......  ....      ....          ..........          ..  ......  ....      ....          ..........        ......      ....        ................................................................",
"............................................................    ....  ..  ......  ......  ..................  ......  ......  ..  ......  ......  ..............  ......  ..  ......  ..  ......  ..............................................................",
"............................................................    ....  ..  ......  ......  ..................  ......  ......  ..  ......  ......  ..............  ......  ..  ......  ..  ......  ..............................................................",
"............................................................  ..  ..  ..  ......  ......  ..................  ......          ..          ......  ..............        ....          ..  ......  ..............................................................",
"............................................................  ..  ..  ..  ......  ......  ..................  ......          ..          ......  ..............        ....          ..  ......  ..............................................................",
"............................................................  ....    ..  ......  ......  ..................  ......  ......  ..  ......  ......  ..............  ......  ..  ......  ..  ......  ..............................................................",
"............................................................  ....    ..  ......  ......  ..................  ......  ......  ..  ......  ......  ..............  ......  ..  ......  ..  ......  ..............................................................",
"............................................................  ......  ....      ........  ..................  ......  ......  ..  ......  ......  ..............        ....  ......  ..        ................................................................",
"............................................................  ......  ....      ........  ..................  ......  ......  ..  ......  ......  ..............        ....  ......  ..        ................................................................",
"................................................................................................................................................................................................................................................................",
"................................................................................................................................................................................................................................................................",
"................................................................................................................................................................................................................................................................",
"................................................................................................................................................................................................................................................................",
"................................................................................................................................................................................................................................................................",
"................................................................................................................................................................................................................................................................",
"................................................................................................................................................................................................................................................................",
"................................................................................................................................................................................................................................................................",
"................................................................................................................................................................................................................................................................",
"................................................................................................................................................................................................................................................................",
"................................................................................................................................................................................................................................................................",
"................................................................................................................................................................................................................................................................",
"................................................................................................................................................................................................................................................................",
"................................................................................................................................................................................................................................................................",
"................................................................................................................................................................................................................................................................",
"................................................................................................................................................................................................................................................................",
"................................................................................................................................................................................................................................................................",
"................................................................................................................................................................................................................................................................",
"................................................................................................................................................................................................................................................................",
"................................................................................................................................................................................................................................................................",
"................................................................................................................................................................................................................................................................",
"................................................................................................................................................................................................................................................................",
"................................................................................................................................................................................................................................................................",
"................................................................................................................................................................................................................................................................",
"................................................................................................................................................................................................................................................................",
"................................................................................................................................................................................................................................................................",
"................................................................................................................................................................................................................................................................",
"................................................................................................................................................................................................................................................................"
};
