/* XPM */
static char * not_that_bad_xpm[] = {
"256 64 2 1",
" 	c #000000",
".	c #FFFFFF",
"                                                                                                                                                                                                                                                                ",
"                                                                                                                                                                                                                                                                ",
"                                                                                                                                                                                                                                                                ",
"                                                                                                                                                                                                                                                                ",
"                                                                                                                                                                                                                                                                ",
"                                                                                                                                                                                                                                                                ",
"                                                                                                                                                                                                                                                                ",
"                                                                                                                                                                                                                                                                ",
"                                                                                                                                                                                                                                                                ",
"                                                                                                                                                                                                                                                                ",
"                                                                                                                                                                                                                                                                ",
"                                                                                                                                                                                                                                                                ",
"                                                                                                                                                                                                                                                                ",
"                                                                                                                                                                                                                                                                ",
"                                                                                                                                                                                                                                                                ",
"                                                                                                                                                                                                                                                                ",
"                                                                                                                                                                                                                                                                ",
"                                                                                                                                                                                                                                                                ",
"                                                                                                                                                                                                                                                                ",
"                                                                                                                                                                                                                                                                ",
"                                                                                                                                                                                                                                                                ",
"                                                                                                                                                                                                                                                                ",
"                                                                                                                                                                                                                                                                ",
"                                                                                                                                                                                                                                                                ",
"                                                                                                                                                                                                                                                                ",
"                                                                                                                                                                                                                                                                ",
"                                                            ..      ..    ......    ..........          ..........  ..      ..    ......    ..........          ........      ......    ........                                                                ",
"                                                            ..      ..    ......    ..........          ..........  ..      ..    ......    ..........          ........      ......    ........                                                                ",
"                                                            ....    ..  ..      ..      ..                  ..      ..      ..  ..      ..      ..              ..      ..  ..      ..  ..      ..                                                              ",
"                                                            ....    ..  ..      ..      ..                  ..      ..      ..  ..      ..      ..              ..      ..  ..      ..  ..      ..                                                              ",
"                                                            ..  ..  ..  ..      ..      ..                  ..      ..........  ..........      ..              ........    ..........  ..      ..                                                              ",
"                                                            ..  ..  ..  ..      ..      ..                  ..      ..........  ..........      ..              ........    ..........  ..      ..                                                              ",
"                                                            ..    ....  ..      ..      ..                  ..      ..      ..  ..      ..      ..              ..      ..  ..      ..  ..      ..                                                              ",
"                                                            ..    ....  ..      ..      ..                  ..      ..      ..  ..      ..      ..              ..      ..  ..      ..  ..      ..                                                              ",
"                                                            ..      ..    ......        ..                  ..      ..      ..  ..      ..      ..              ........    ..      ..  ........                                                                ",
"                                                            ..      ..    ......        ..                  ..      ..      ..  ..      ..      ..              ........    ..      ..  ........                                                                ",
"                                                                                                                                                                                                                                                                ",
"                                                                                                                                                                                                                                                                ",
"                                                                                                                                                                                                                                                                ",
"                                                                                                                                                                                                                                                                ",
"                                                                                                                                                                                                                                                                ",
"                                                                                                                                                                                                                                                                ",
"                                                                                                                                                                                                                                                                ",
"                                                                                                                                                                                                                                                                ",
"                                                                                                                                                                                                                                                                ",
"                                                                                                                                                                                                                                                                ",
"                                                                                                                                                                                                                                                                ",
"                                                                                                                                                                                                                                                                ",
"                                                                                                                                                                                                                                                                ",
"                                                                                                                                                                                                                                                                ",
"                                                                                                                                                                                                                                                                ",
"                                                                                                                                                                                                                                                                ",
"                                                                                                                                                                                                                                                                ",
"                                                                                                                                                                                                                                                                ",
"                                                                                                                                                                                                                                                                ",
"                                                                                                                                                                                                                                                                ",
"                                                                                                                                                                                                                                                                ",
"                                                                                                                                                                                                                                                                ",
"                                                                                                                                                                                                                                                                ",
"                                                                                                                                                                                                                                                                ",
"                                                                                                                                                                                                                                                                ",
"                                                                                                                                                                                                                                                                ",
"                                                                                                                                                                                                                                                                ",
"                                                                                                                                                                                                                                                                "};
