/* XPM */
static char * open_your_eyes_xpm[] = {
"256 64 2 1",
" 	c #000000",
".	c #FFFFFF",
"                                                                                                                                                                                                                                                                ",
"                                                                                                                                                                                                                                                                ",
"                                                                                                                                                                                                                                                                ",
"                                                                                                                                                                                                                                                                ",
"                                                                                                                                                                                                                                                                ",
"                                                                                                                                                                                                                                                                ",
"                                                                                                                                                                                                                                                                ",
"                                                                                                                                                                                                                                                                ",
"                                                                                                                                                                                                                                                                ",
"                                                                                                                                                                                                                                                                ",
"                                                                                                                                                                                                                                                                ",
"                                                                                                                                                                                                                                                                ",
"                                                                                                                                                                                                                                                                ",
"                                                                                                                                                                                                                                                                ",
"                                                                                                                                                                                                                                                                ",
"                                                                                                                                                                                                                                                                ",
"                                                                                                                                                                                                                                                                ",
"                                                                                                                                                                                                                                                                ",
"                                                                                                                                                                                                                                                                ",
"                                                                                                                                                                                                                                                                ",
"                                                                                                                                                                                                                                                                ",
"                                                                                                                                                                                                                                                                ",
"                                                                                                                                                                                                                                                                ",
"                                                                                                                                                                                                                                                                ",
"                                                                                                                                                                                                                                                                ",
"                                                                                                                                                                                                                                                                ",
"                                                  ......    ........      ........  ..      ..          ..      ..    ......    ..      ..  ........              ........  ..      ..    ........    ........                                                  ",
"                                                  ......    ........      ........  ..      ..          ..      ..    ......    ..      ..  ........              ........  ..      ..    ........    ........                                                  ",
"                                                ..      ..  ..      ..  ..          ....    ..          ..      ..  ..      ..  ..      ..  ..      ..          ..          ..      ..  ..          ..                                                          ",
"                                                ..      ..  ..      ..  ..          ....    ..          ..      ..  ..      ..  ..      ..  ..      ..          ..          ..      ..  ..          ..                                                          ",
"                                                ..      ..  ........    ..........  ..  ..  ..            ..  ..    ..      ..  ..      ..  ........            ..........    ..  ..    ..........    ......                                                    ",
"                                                ..      ..  ........    ..........  ..  ..  ..            ..  ..    ..      ..  ..      ..  ........            ..........    ..  ..    ..........    ......                                                    ",
"                                                ..      ..  ..          ..          ..    ....              ..      ..      ..  ..      ..  ..    ..            ..              ..      ..                  ..                                                  ",
"                                                ..      ..  ..          ..          ..    ....              ..      ..      ..  ..      ..  ..    ..            ..              ..      ..                  ..                                                  ",
"                                                  ......    ..            ........  ..      ..              ..        ......      ......    ..      ..            ........      ..        ........  ........                                                    ",
"                                                  ......    ..            ........  ..      ..              ..        ......      ......    ..      ..            ........      ..        ........  ........                                                    ",
"                                                                                                                                                                                                                                                                ",
"                                                                                                                                                                                                                                                                ",
"                                                                                                                                                                                                                                                                ",
"                                                                                                                                                                                                                                                                ",
"                                                                                                                                                                                                                                                                ",
"                                                                                                                                                                                                                                                                ",
"                                                                                                                                                                                                                                                                ",
"                                                                                                                                                                                                                                                                ",
"                                                                                                                                                                                                                                                                ",
"                                                                                                                                                                                                                                                                ",
"                                                                                                                                                                                                                                                                ",
"                                                                                                                                                                                                                                                                ",
"                                                                                                                                                                                                                                                                ",
"                                                                                                                                                                                                                                                                ",
"                                                                                                                                                                                                                                                                ",
"                                                                                                                                                                                                                                                                ",
"                                                                                                                                                                                                                                                                ",
"                                                                                                                                                                                                                                                                ",
"                                                                                                                                                                                                                                                                ",
"                                                                                                                                                                                                                                                                ",
"                                                                                                                                                                                                                                                                ",
"                                                                                                                                                                                                                                                                ",
"                                                                                                                                                                                                                                                                ",
"                                                                                                                                                                                                                                                                ",
"                                                                                                                                                                                                                                                                ",
"                                                                                                                                                                                                                                                                ",
"                                                                                                                                                                                                                                                                ",
"                                                                                                                                                                                                                                                                "};
