/* XPM */
static char *open_your_eyes[] = {
/* columns rows colors chars-per-pixel */
"256 64 2 1 ",
"  c white",
". c None",
/* pixels */
"................................................................................................................................................................................................................................................................",
"................................................................................................................................................................................................................................................................",
"................................................................................................................................................................................................................................................................",
"................................................................................................................................................................................................................................................................",
"................................................................................................................................................................................................................................................................",
"................................................................................................................................................................................................................................................................",
"................................................................................................................................................................................................................................................................",
"................................................................................................................................................................................................................................................................",
"................................................................................................................................................................................................................................................................",
"................................................................................................................................................................................................................................................................",
"................................................................................................................................................................................................................................................................",
"................................................................................................................................................................................................................................................................",
"................................................................................................................................................................................................................................................................",
"................................................................................................................................................................................................................................................................",
"................................................................................................................................................................................................................................................................",
"................................................................................................................................................................................................................................................................",
"................................................................................................................................................................................................................................................................",
"................................................................................................................................................................................................................................................................",
"................................................................................................................................................................................................................................................................",
"................................................................................................................................................................................................................................................................",
"................................................................................................................................................................................................................................................................",
"................................................................................................................................................................................................................................................................",
"................................................................................................................................................................................................................................................................",
"................................................................................................................................................................................................................................................................",
"................................................................................................................................................................................................................................................................",
"................................................................................................................................................................................................................................................................",
"..................................................      ....        ......        ..  ......  ..........  ......  ....      ....  ......  ..        ..............        ..  ......  ....        ....        ..................................................",
"..................................................      ....        ......        ..  ......  ..........  ......  ....      ....  ......  ..        ..............        ..  ......  ....        ....        ..................................................",
"................................................  ......  ..  ......  ..  ..........    ....  ..........  ......  ..  ......  ..  ......  ..  ......  ..........  ..........  ......  ..  ..........  ..........................................................",
"................................................  ......  ..  ......  ..  ..........    ....  ..........  ......  ..  ......  ..  ......  ..  ......  ..........  ..........  ......  ..  ..........  ..........................................................",
"................................................  ......  ..        ....          ..  ..  ..  ............  ..  ....  ......  ..  ......  ..        ............          ....  ..  ....          ....      ....................................................",
"................................................  ......  ..        ....          ..  ..  ..  ............  ..  ....  ......  ..  ......  ..        ............          ....  ..  ....          ....      ....................................................",
"................................................  ......  ..  ..........  ..........  ....    ..............  ......  ......  ..  ......  ..  ....  ............  ..............  ......  ..................  ..................................................",
"................................................  ......  ..  ..........  ..........  ....    ..............  ......  ......  ..  ......  ..  ....  ............  ..............  ......  ..................  ..................................................",
"..................................................      ....  ............        ..  ......  ..............  ........      ......      ....  ......  ............        ......  ........        ..        ....................................................",
"..................................................      ....  ............        ..  ......  ..............  ........      ......      ....  ......  ............        ......  ........        ..        ....................................................",
"................................................................................................................................................................................................................................................................",
"................................................................................................................................................................................................................................................................",
"................................................................................................................................................................................................................................................................",
"................................................................................................................................................................................................................................................................",
"................................................................................................................................................................................................................................................................",
"................................................................................................................................................................................................................................................................",
"................................................................................................................................................................................................................................................................",
"................................................................................................................................................................................................................................................................",
"................................................................................................................................................................................................................................................................",
"................................................................................................................................................................................................................................................................",
"................................................................................................................................................................................................................................................................",
"................................................................................................................................................................................................................................................................",
"................................................................................................................................................................................................................................................................",
"................................................................................................................................................................................................................................................................",
"................................................................................................................................................................................................................................................................",
"................................................................................................................................................................................................................................................................",
"................................................................................................................................................................................................................................................................",
"................................................................................................................................................................................................................................................................",
"................................................................................................................................................................................................................................................................",
"................................................................................................................................................................................................................................................................",
"................................................................................................................................................................................................................................................................",
"................................................................................................................................................................................................................................................................",
"................................................................................................................................................................................................................................................................",
"................................................................................................................................................................................................................................................................",
"................................................................................................................................................................................................................................................................",
"................................................................................................................................................................................................................................................................",
"................................................................................................................................................................................................................................................................",
"................................................................................................................................................................................................................................................................"
};
