/* XPM */
static char * unstoppable_xpm[] = {
"256 64 2 1",
" 	c #000000",
".	c #FFFFFF",
"                                                                                                                                                                                                                                                                ",
"                                                                                                                                                                                                                                                                ",
"                                                                                                                                                                                                                                                                ",
"                                                                                                                                                                                                                                                                ",
"                                                                                                                                                                                                                                                                ",
"                                                                                                                                                                                                                                                                ",
"                                                                                                                                                                                                                                                                ",
"                                                                                                                                                                                                                                                                ",
"                                                                                                                                                                                                                                                                ",
"                                                                                                                                                                                                                                                                ",
"                                                                                                                                                                                                                                                                ",
"                                                                                                                                                                                                                                                                ",
"                                                                                                                                                                                                                                                                ",
"                                                                                                                                                                                                                                                                ",
"                                                                                                                                                                                                                                                                ",
"                                                                                                                                                                                                                                                                ",
"                                                                                                                                                                                                                                                                ",
"                                                                                                                                                                                                                                                                ",
"                                                                                                                                                                                                                                                                ",
"                                                                                                                                                                                                                                                                ",
"                                                                                                                                                                                                                                                                ",
"                                                                                                                                                                                                                                                                ",
"                                                                                                                                                                                                                                                                ",
"                                                                                                                                                                                                                                                                ",
"                                                                                                                                                                                                                                                                ",
"                                                                                                                                                                                                                                                                ",
"                                                              ..      ..  ..      ..    ........  ..........    ......    ........    ........      ......    ........    ..            ........                                                                ",
"                                                              ..      ..  ..      ..    ........  ..........    ......    ........    ........      ......    ........    ..            ........                                                                ",
"                                                              ..      ..  ....    ..  ..              ..      ..      ..  ..      ..  ..      ..  ..      ..  ..      ..  ..          ..                                                                        ",
"                                                              ..      ..  ....    ..  ..              ..      ..      ..  ..      ..  ..      ..  ..      ..  ..      ..  ..          ..                                                                        ",
"                                                              ..      ..  ..  ..  ..    ......        ..      ..      ..  ........    ........    ..........  ........    ..          ..........                                                                ",
"                                                              ..      ..  ..  ..  ..    ......        ..      ..      ..  ........    ........    ..........  ........    ..          ..........                                                                ",
"                                                              ..      ..  ..    ....          ..      ..      ..      ..  ..          ..          ..      ..  ..      ..  ..          ..                                                                        ",
"                                                              ..      ..  ..    ....          ..      ..      ..      ..  ..          ..          ..      ..  ..      ..  ..          ..                                                                        ",
"                                                                ......    ..      ..  ........        ..        ......    ..          ..          ..      ..  ........    ..........    ........                                                                ",
"                                                                ......    ..      ..  ........        ..        ......    ..          ..          ..      ..  ........    ..........    ........                                                                ",
"                                                                                                                                                                                                                                                                ",
"                                                                                                                                                                                                                                                                ",
"                                                                                                                                                                                                                                                                ",
"                                                                                                                                                                                                                                                                ",
"                                                                                                                                                                                                                                                                ",
"                                                                                                                                                                                                                                                                ",
"                                                                                                                                                                                                                                                                ",
"                                                                                                                                                                                                                                                                ",
"                                                                                                                                                                                                                                                                ",
"                                                                                                                                                                                                                                                                ",
"                                                                                                                                                                                                                                                                ",
"                                                                                                                                                                                                                                                                ",
"                                                                                                                                                                                                                                                                ",
"                                                                                                                                                                                                                                                                ",
"                                                                                                                                                                                                                                                                ",
"                                                                                                                                                                                                                                                                ",
"                                                                                                                                                                                                                                                                ",
"                                                                                                                                                                                                                                                                ",
"                                                                                                                                                                                                                                                                ",
"                                                                                                                                                                                                                                                                ",
"                                                                                                                                                                                                                                                                ",
"                                                                                                                                                                                                                                                                ",
"                                                                                                                                                                                                                                                                ",
"                                                                                                                                                                                                                                                                ",
"                                                                                                                                                                                                                                                                ",
"                                                                                                                                                                                                                                                                ",
"                                                                                                                                                                                                                                                                ",
"                                                                                                                                                                                                                                                                "};
